<svg width="11" height="10" viewBox="0 0 11 10" fill="none" xmlns="http://www.w3.org/2000/svg">
<path d="M5.25 7.25H5.75V4.5H5.25V7.25ZM5.5 3.7885C5.58733 3.7885 5.6605 3.759 5.7195 3.7C5.7785 3.641 5.80783 3.56783 5.8075 3.4805C5.80717 3.39317 5.77767 3.32017 5.719 3.2615C5.66033 3.20283 5.58733 3.17333 5.5 3.173C5.41267 3.17267 5.33967 3.20217 5.281 3.2615C5.22233 3.32083 5.19283 3.394 5.1925 3.481C5.19217 3.568 5.22167 3.641 5.281 3.7C5.34033 3.759 5.41333 3.7885 5.5 3.7885ZM5.5015 9.5C4.87917 9.5 4.29417 9.382 3.7465 9.146C3.19883 8.90967 2.72233 8.589 2.317 8.184C1.91167 7.779 1.59083 7.303 1.3545 6.756C1.11817 6.209 1 5.62417 1 5.0015C1 4.37883 1.11817 3.79383 1.3545 3.2465C1.5905 2.69883 1.91067 2.22233 2.315 1.817C2.71933 1.41167 3.1955 1.09083 3.7435 0.8545C4.2915 0.618167 4.8765 0.5 5.4985 0.5C6.1205 0.5 6.7055 0.618167 7.2535 0.8545C7.80117 1.0905 8.27767 1.41083 8.683 1.8155C9.08833 2.22017 9.40917 2.69633 9.6455 3.244C9.88183 3.79167 10 4.3765 10 4.9985C10 5.6205 9.882 6.2055 9.646 6.7535C9.41 7.3015 9.08933 7.778 8.684 8.183C8.27867 8.588 7.80267 8.90883 7.256 9.1455C6.70933 9.38217 6.1245 9.50033 5.5015 9.5ZM5.5 9C6.61667 9 7.5625 8.6125 8.3375 7.8375C9.1125 7.0625 9.5 6.11667 9.5 5C9.5 3.88333 9.1125 2.9375 8.3375 2.1625C7.5625 1.3875 6.61667 1 5.5 1C4.38333 1 3.4375 1.3875 2.6625 2.1625C1.8875 2.9375 1.5 3.88333 1.5 5C1.5 6.11667 1.8875 7.0625 2.6625 7.8375C3.4375 8.6125 4.38333 9 5.5 9Z" fill="#3B82F6"/>
</svg>
