<svg width="49" height="48" viewBox="0 0 49 48" fill="none" xmlns="http://www.w3.org/2000/svg">
<path d="M24.5 36L15.365 23.1C13.8697 21.3346 12.9068 19.1807 12.5884 16.8892C12.27 14.5977 12.6091 12.2629 13.5663 10.1567C14.5235 8.05053 16.0594 6.25962 17.9951 4.99259C19.9309 3.72555 22.1867 3.03453 24.5 3C27.7066 3.03169 30.7699 4.33289 33.0191 6.61862C35.2683 8.90435 36.52 11.9883 36.5 15.195C36.5012 17.9924 35.5488 20.7067 33.8 22.89L24.5 36ZM24.5 6C22.0877 6.0277 19.7851 7.01157 18.0977 8.73556C16.4102 10.4595 15.476 12.7827 15.5 15.195C15.5113 17.3965 16.3033 19.5226 17.735 21.195L24.5 30.78L31.445 21C32.7651 19.3522 33.4893 17.3064 33.5 15.195C33.524 12.7827 32.5897 10.4595 30.9022 8.73556C29.2148 7.01157 26.9122 6.0277 24.5 6Z" fill="#525252"/>
<path d="M24.5 16.5C26.1569 16.5 27.5 15.1569 27.5 13.5C27.5 11.8431 26.1569 10.5 24.5 10.5C22.8431 10.5 21.5 11.8431 21.5 13.5C21.5 15.1569 22.8431 16.5 24.5 16.5Z" fill="#525252"/>
<path d="M42.5 18H39.5V21H42.5V42H6.5V21H9.5V18H6.5C5.70435 18 4.94129 18.3161 4.37868 18.8787C3.81607 19.4413 3.5 20.2044 3.5 21V42C3.5 42.7956 3.81607 43.5587 4.37868 44.1213C4.94129 44.6839 5.70435 45 6.5 45H42.5C43.2957 45 44.0587 44.6839 44.6213 44.1213C45.1839 43.5587 45.5 42.7956 45.5 42V21C45.5 20.2044 45.1839 19.4413 44.6213 18.8787C44.0587 18.3161 43.2957 18 42.5 18Z" fill="#525252"/>
</svg>
