<svg width="25" height="25" viewBox="0 0 25 25" fill="none" xmlns="http://www.w3.org/2000/svg">
<path d="M19.7916 4.16668H17.7083V3.12501C17.7083 2.84874 17.5985 2.58379 17.4032 2.38844C17.2078 2.19309 16.9429 2.08334 16.6666 2.08334C16.3903 2.08334 16.1254 2.19309 15.93 2.38844C15.7347 2.58379 15.6249 2.84874 15.6249 3.12501V4.16668H9.37492V3.12501C9.37492 2.84874 9.26517 2.58379 9.06982 2.38844C8.87447 2.19309 8.60952 2.08334 8.33325 2.08334C8.05699 2.08334 7.79203 2.19309 7.59668 2.38844C7.40133 2.58379 7.29159 2.84874 7.29159 3.12501V4.16668H5.20825C4.37945 4.16668 3.58459 4.49592 2.99854 5.08197C2.41249 5.66802 2.08325 6.46288 2.08325 7.29168V19.7917C2.08325 20.6205 2.41249 21.4153 2.99854 22.0014C3.58459 22.5874 4.37945 22.9167 5.20825 22.9167H19.7916C20.6204 22.9167 21.4152 22.5874 22.0013 22.0014C22.5873 21.4153 22.9166 20.6205 22.9166 19.7917V7.29168C22.9166 6.46288 22.5873 5.66802 22.0013 5.08197C21.4152 4.49592 20.6204 4.16668 19.7916 4.16668ZM20.8333 19.7917C20.8333 20.0679 20.7235 20.3329 20.5282 20.5282C20.3328 20.7236 20.0679 20.8333 19.7916 20.8333H5.20825C4.93198 20.8333 4.66703 20.7236 4.47168 20.5282C4.27633 20.3329 4.16659 20.0679 4.16659 19.7917V12.5H20.8333V19.7917ZM20.8333 10.4167H4.16659V7.29168C4.16659 7.01541 4.27633 6.75046 4.47168 6.55511C4.66703 6.35976 4.93198 6.25001 5.20825 6.25001H7.29159V7.29168C7.29159 7.56794 7.40133 7.8329 7.59668 8.02825C7.79203 8.2236 8.05699 8.33334 8.33325 8.33334C8.60952 8.33334 8.87447 8.2236 9.06982 8.02825C9.26517 7.8329 9.37492 7.56794 9.37492 7.29168V6.25001H15.6249V7.29168C15.6249 7.56794 15.7347 7.8329 15.93 8.02825C16.1254 8.2236 16.3903 8.33334 16.6666 8.33334C16.9429 8.33334 17.2078 8.2236 17.4032 8.02825C17.5985 7.8329 17.7083 7.56794 17.7083 7.29168V6.25001H19.7916C20.0679 6.25001 20.3328 6.35976 20.5282 6.55511C20.7235 6.75046 20.8333 7.01541 20.8333 7.29168V10.4167Z" fill="#3B82F6"/>
</svg>
