<svg width="20" height="21" viewBox="0 0 20 21" fill="none" xmlns="http://www.w3.org/2000/svg">
<path d="M20 5.5C20 8.26143 15.522 10.5 10 10.5C4.478 10.5 2.71448e-07 8.26143 2.71448e-07 5.5C2.71448e-07 2.73857 4.478 0.5 10 0.5C15.522 0.5 20 2.73857 20 5.5ZM19.702 9.28429C17.52 10.8857 13.988 11.9286 10 11.9286C6.012 11.9286 2.48 10.8857 0.298 9.28429C0.100648 9.6741 -0.000190949 10.0855 2.71448e-07 10.5C2.71448e-07 13.2614 4.478 15.5 10 15.5C15.522 15.5 20 13.2614 20 10.5C19.9973 10.079 19.898 9.67381 19.702 9.28429ZM19.702 14.2843C17.52 15.8857 13.988 16.9286 10 16.9286C6.012 16.9286 2.48 15.8857 0.298 14.2843C0.100648 14.6741 -0.000190949 15.0855 2.71448e-07 15.5C2.71448e-07 18.2614 4.478 20.5 10 20.5C15.522 20.5 20 18.2614 20 15.5C19.9973 15.079 19.898 14.6738 19.702 14.2843Z" fill="#FDE047"/>
</svg>
