<svg width="25" height="25" viewBox="0 0 25 25" fill="none" xmlns="http://www.w3.org/2000/svg">
<path fill-rule="evenodd" clip-rule="evenodd" d="M12.5001 3.38544C10.0827 3.38544 7.76441 4.34572 6.0551 6.05504C4.34578 7.76435 3.3855 10.0827 3.3855 12.5V17.9688C3.3855 18.5904 3.63243 19.1865 4.07197 19.6261C4.5115 20.0656 5.10765 20.3125 5.72925 20.3125H6.77091C7.39252 20.3125 7.98866 20.0656 8.4282 19.6261C8.86773 19.1865 9.11466 18.5904 9.11466 17.9688V14.3229C9.11466 13.7013 8.86773 13.1052 8.4282 12.6657C7.98866 12.2261 7.39252 11.9792 6.77091 11.9792H5.72925C5.45703 11.9806 5.20008 12.024 4.95841 12.1094C5.05997 10.1778 5.89883 8.35875 7.30203 7.02739C8.70523 5.69603 10.5658 4.95383 12.5001 4.95383C14.4344 4.95383 16.2949 5.69603 17.6981 7.02739C19.1013 8.35875 19.9402 10.1778 20.0417 12.1094C19.7937 12.0241 19.5333 11.9801 19.2709 11.9792H18.2292C17.6076 11.9792 17.0115 12.2261 16.572 12.6657C16.1324 13.1052 15.8855 13.7013 15.8855 14.3229V17.9688C15.8855 18.5904 16.1324 19.1865 16.572 19.6261C17.0115 20.0656 17.6076 20.3125 18.2292 20.3125H19.2709C19.8925 20.3125 20.4887 20.0656 20.9282 19.6261C21.3677 19.1865 21.6147 18.5904 21.6147 17.9688V12.5C21.6147 11.3031 21.3789 10.1179 20.9209 9.01202C20.4628 7.90619 19.7914 6.9014 18.9451 6.05504C18.0987 5.20867 17.0939 4.53729 15.9881 4.07924C14.8822 3.62119 13.697 3.38544 12.5001 3.38544ZM20.0522 14.3084V17.9688C20.0522 18.176 19.9699 18.3747 19.8233 18.5212C19.6768 18.6677 19.4781 18.75 19.2709 18.75H18.2292C18.022 18.75 17.8233 18.6677 17.6768 18.5212C17.5303 18.3747 17.448 18.176 17.448 17.9688V14.3229C17.448 14.1157 17.5303 13.917 17.6768 13.7705C17.8233 13.624 18.022 13.5417 18.2292 13.5417H19.2709C19.4756 13.5417 19.6721 13.622 19.8182 13.7653C19.9643 13.9087 20.0483 14.1037 20.0522 14.3084ZM6.77091 13.5417C6.97811 13.5417 7.17683 13.624 7.32334 13.7705C7.46985 13.917 7.55216 14.1157 7.55216 14.3229V17.9688C7.55216 18.176 7.46985 18.3747 7.32334 18.5212C7.17683 18.6677 6.97811 18.75 6.77091 18.75H5.72925C5.52205 18.75 5.32333 18.6677 5.17682 18.5212C5.03031 18.3747 4.948 18.176 4.948 17.9688V14.3229C4.948 14.1157 5.03031 13.917 5.17682 13.7705C5.32333 13.624 5.52205 13.5417 5.72925 13.5417H6.77091Z" fill="#3B82F6"/>
</svg>
