<svg width="31" height="31" viewBox="0 0 31 31" fill="none" xmlns="http://www.w3.org/2000/svg">
<path d="M24.125 8C23.875 7.25 23.125 6.75 22.375 6.75H8.625C7.75 6.75 7.125 7.25 6.875 8L4.25 15.5V25.5C4.25 26.125 4.875 26.75 5.5 26.75H6.75C7.5 26.75 8 26.125 8 25.5V24.25H23V25.5C23 26.125 23.625 26.75 24.25 26.75H25.5C26.125 26.75 26.75 26.125 26.75 25.5V15.5L24.125 8ZM9 9.25H21.875L23.25 13H7.75L9 9.25ZM24.25 21.75H6.75V15.5H24.25V21.75ZM9.875 16.75C10.875 16.75 11.75 17.625 11.75 18.625C11.75 19.625 10.875 20.5 9.875 20.5C8.875 20.5 8 19.625 8 18.625C8 17.625 8.875 16.75 9.875 16.75ZM21.125 16.75C22.125 16.75 23 17.625 23 18.625C23 19.625 22.125 20.5 21.125 20.5C20.125 20.5 19.25 19.625 19.25 18.625C19.25 17.625 20.125 16.75 21.125 16.75Z" fill="#3B82F6"/>
</svg>
