<svg width="20" height="20" viewBox="0 0 20 20" fill="none" xmlns="http://www.w3.org/2000/svg">
<path fill-rule="evenodd" clip-rule="evenodd" d="M6.87508 4.16667C6.87508 3.33787 7.20432 2.54301 7.79037 1.95696C8.37642 1.37091 9.17128 1.04167 10.0001 1.04167C10.8289 1.04167 11.6237 1.37091 12.2098 1.95696C12.7958 2.54301 13.1251 3.33787 13.1251 4.16667V9.45667C13.1251 9.51667 13.1584 9.60667 13.2567 9.68501C14.0987 10.3596 14.7104 11.2791 15.0073 12.3163C15.3042 13.3536 15.2717 14.4575 14.9142 15.4754C14.5567 16.4934 13.8918 17.3752 13.0116 17.999C12.1313 18.6229 11.079 18.9579 10.0001 18.9579C8.92117 18.9579 7.86888 18.6229 6.9886 17.999C6.10833 17.3752 5.44351 16.4934 5.086 15.4754C4.72849 14.4575 4.69593 13.3536 4.99283 12.3163C5.28973 11.2791 5.90143 10.3596 6.74342 9.68501C6.84175 9.60584 6.87508 9.51667 6.87508 9.45667V4.16667ZM10.0001 2.29167C9.5028 2.29167 9.02589 2.48922 8.67426 2.84085C8.32263 3.19248 8.12508 3.66939 8.12508 4.16667V9.45667C8.12508 9.95917 7.86675 10.3867 7.52508 10.66C6.88505 11.1727 6.42003 11.8714 6.19428 12.6598C5.96853 13.4481 5.99319 14.2871 6.26486 15.0608C6.53652 15.8345 7.04178 16.5048 7.71082 16.979C8.37985 17.4531 9.17964 17.7078 9.99967 17.7078C10.8197 17.7078 11.6195 17.4531 12.2885 16.979C12.9576 16.5048 13.4628 15.8345 13.7345 15.0608C14.0061 14.2871 14.0308 13.4481 13.805 12.6598C13.5793 11.8714 13.1143 11.1727 12.4742 10.66C12.1334 10.3867 11.8751 9.96 11.8751 9.45667V4.16667C11.8751 3.66939 11.6775 3.19248 11.3259 2.84085C10.9743 2.48922 10.4974 2.29167 10.0001 2.29167ZM10.0001 3.54167C10.1658 3.54167 10.3248 3.60752 10.442 3.72473C10.5592 3.84194 10.6251 4.00091 10.6251 4.16667V11.1142C11.2712 11.2674 11.8386 11.6525 12.2194 12.1965C12.6002 12.7405 12.768 13.4053 12.6909 14.0649C12.6138 14.7244 12.2971 15.3327 11.8011 15.7741C11.305 16.2156 10.6641 16.4594 10.0001 16.4594C9.33605 16.4594 8.69514 16.2156 8.19908 15.7741C7.70302 15.3327 7.38636 14.7244 7.30925 14.0649C7.23213 13.4053 7.39992 12.7405 7.78076 12.1965C8.1616 11.6525 8.72896 11.2674 9.37508 11.1142V4.16667C9.37508 4.00091 9.44093 3.84194 9.55814 3.72473C9.67535 3.60752 9.83432 3.54167 10.0001 3.54167ZM10.0001 12.2917C9.61331 12.2917 9.24237 12.4453 8.96888 12.7188C8.69539 12.9923 8.54175 13.3632 8.54175 13.75C8.54175 14.1368 8.69539 14.5077 8.96888 14.7812C9.24237 15.0547 9.61331 15.2083 10.0001 15.2083C10.3869 15.2083 10.7578 15.0547 11.0313 14.7812C11.3048 14.5077 11.4584 14.1368 11.4584 13.75C11.4584 13.3632 11.3048 12.9923 11.0313 12.7188C10.7578 12.4453 10.3869 12.2917 10.0001 12.2917Z" fill="#FFA629"/>
</svg>
