<svg width="80" height="80" viewBox="0 0 80 80" fill="none" xmlns="http://www.w3.org/2000/svg">
<path d="M13.3333 60C13.3333 56.4638 14.738 53.0724 17.2385 50.5719C19.739 48.0714 23.1304 46.6667 26.6666 46.6667H53.3333C56.8695 46.6667 60.2609 48.0714 62.7613 50.5719C65.2618 53.0724 66.6666 56.4638 66.6666 60C66.6666 61.7681 65.9642 63.4638 64.714 64.714C63.4637 65.9643 61.768 66.6667 59.9999 66.6667H19.9999C18.2318 66.6667 16.5361 65.9643 15.2859 64.714C14.0356 63.4638 13.3333 61.7681 13.3333 60Z" stroke="#737373" stroke-width="6.66667" stroke-linejoin="round"/>
<path d="M40 33.3333C45.5228 33.3333 50 28.8562 50 23.3333C50 17.8105 45.5228 13.3333 40 13.3333C34.4772 13.3333 30 17.8105 30 23.3333C30 28.8562 34.4772 33.3333 40 33.3333Z" stroke="#737373" stroke-width="6.66667"/>
</svg>
