<svg width="12" height="12" viewBox="0 0 12 12" fill="none" xmlns="http://www.w3.org/2000/svg">
<path d="M6 1.5C7.157 1.5 8.228 1.704 9.029 2.0545C9.4285 2.2295 9.7835 2.4505 10.045 2.7215C10.2875 2.9715 10.4675 3.2855 10.496 3.6495L10.5 3.75V8.75C10.5 9.157 10.3095 9.505 10.045 9.7785C9.7835 10.0495 9.4285 10.2705 9.029 10.4455C8.228 10.7955 7.157 11 6 11C4.843 11 3.772 10.796 2.971 10.4455C2.5715 10.2705 2.2165 10.0495 1.955 9.7785C1.7125 9.5285 1.5325 9.2145 1.504 8.8505L1.5 8.75V3.75C1.5 3.343 1.6905 2.995 1.955 2.7215C2.2165 2.4505 2.5715 2.2295 2.971 2.0545C3.772 1.7045 4.843 1.5 6 1.5ZM9.5 7.7035C9.34852 7.79448 9.19117 7.87533 9.029 7.9455C8.228 8.2955 7.157 8.5 6 8.5C4.843 8.5 3.772 8.296 2.971 7.9455C2.80883 7.87533 2.65148 7.79448 2.5 7.7035V8.75C2.5 8.826 2.533 8.938 2.674 9.0835C2.817 9.2315 3.048 9.3875 3.372 9.5295C4.019 9.8125 4.9475 10 6 10C7.0525 10 7.981 9.8125 8.628 9.5295C8.952 9.3875 9.183 9.2315 9.326 9.0835C9.467 8.9385 9.5 8.826 9.5 8.75V7.7035ZM9.5 5.2035C9.34852 5.29448 9.19117 5.37533 9.029 5.4455C8.228 5.7955 7.157 6 6 6C4.843 6 3.772 5.796 2.971 5.4455C2.80883 5.37533 2.65148 5.29448 2.5 5.2035V6.25C2.5 6.326 2.533 6.438 2.674 6.5835C2.817 6.7315 3.048 6.8875 3.372 7.0295C4.019 7.3125 4.9475 7.5 6 7.5C7.0525 7.5 7.981 7.3125 8.628 7.0295C8.952 6.8875 9.183 6.7315 9.326 6.5835C9.467 6.4385 9.5 6.326 9.5 6.25V5.2035ZM6 2.5C4.9475 2.5 4.019 2.6875 3.372 2.9705C3.048 3.1125 2.817 3.2685 2.674 3.4165C2.533 3.5615 2.5 3.674 2.5 3.75C2.5 3.826 2.533 3.938 2.674 4.0835C2.817 4.2315 3.048 4.3875 3.372 4.5295C4.019 4.8125 4.9475 5 6 5C7.0525 5 7.981 4.8125 8.628 4.5295C8.952 4.3875 9.183 4.2315 9.326 4.0835C9.467 3.9385 9.5 3.826 9.5 3.75C9.5 3.674 9.467 3.562 9.326 3.4165C9.183 3.2685 8.952 3.1125 8.628 2.9705C7.981 2.6875 7.0525 2.5 6 2.5Z" fill="#525252"/>
</svg>
