<svg width="16" height="17" viewBox="0 0 16 17" fill="none" xmlns="http://www.w3.org/2000/svg">
<path d="M6.11467 8.17202L5.17133 7.22936L8 4.40002L10.8287 7.22869L9.88533 8.17136L8 6.28669L6.11467 8.17202ZM6.11467 8.82802L5.17133 9.77069L8 12.6L10.8287 9.77136L9.88533 8.82869L8 10.7134L6.11467 8.82802Z" fill="white"/>
<path fill-rule="evenodd" clip-rule="evenodd" d="M15.3333 8.50002C15.3333 12.55 12.05 15.8334 8 15.8334C3.95 15.8334 0.666666 12.55 0.666666 8.50002C0.666666 4.45002 3.95 1.16669 8 1.16669C12.05 1.16669 15.3333 4.45002 15.3333 8.50002ZM14 8.50002C14 9.28795 13.8448 10.0682 13.5433 10.7961C13.2417 11.5241 12.7998 12.1855 12.2426 12.7427C11.6855 13.2998 11.0241 13.7418 10.2961 14.0433C9.56815 14.3448 8.78793 14.5 8 14.5C7.21207 14.5 6.43185 14.3448 5.7039 14.0433C4.97595 13.7418 4.31451 13.2998 3.75736 12.7427C3.20021 12.1855 2.75825 11.5241 2.45672 10.7961C2.15519 10.0682 2 9.28795 2 8.50002C2 6.90872 2.63214 5.3826 3.75736 4.25738C4.88258 3.13216 6.4087 2.50002 8 2.50002C9.5913 2.50002 11.1174 3.13216 12.2426 4.25738C13.3679 5.3826 14 6.90872 14 8.50002Z" fill="white"/>
</svg>
