<svg width="16" height="17" viewBox="0 0 16 17" fill="none" xmlns="http://www.w3.org/2000/svg">
<path d="M6.07133 4.13198C6.47 2.96531 8.082 2.92998 8.55467 4.02598L8.59467 4.13265L9.13267 5.70598C9.25596 6.0668 9.4552 6.39699 9.71695 6.67426C9.9787 6.95154 10.2969 7.16945 10.65 7.31331L10.7947 7.36731L12.368 7.90465C13.5347 8.30331 13.57 9.91531 12.4747 10.388L12.368 10.428L10.7947 10.966C10.4337 11.0892 10.1034 11.2884 9.82601 11.5502C9.54862 11.8119 9.3306 12.1301 9.18667 12.4833L9.13267 12.6273L8.59533 14.2013C8.19667 15.368 6.58467 15.4033 6.11267 14.308L6.07133 14.2013L5.534 12.628C5.41079 12.267 5.21158 11.9367 4.94983 11.6593C4.68807 11.3819 4.36986 11.1639 4.01667 11.02L3.87267 10.966L2.29933 10.4286C1.132 10.03 1.09667 8.41798 2.19267 7.94598L2.29933 7.90465L3.87267 7.36731C4.23349 7.24402 4.56367 7.04478 4.84095 6.78303C5.11822 6.52128 5.33614 6.20311 5.48 5.84998L5.534 5.70598L6.07133 4.13198ZM7.33333 4.56265L6.796 6.13598C6.60826 6.68618 6.30285 7.18885 5.90102 7.60898C5.4992 8.02911 5.01063 8.3566 4.46933 8.56865L4.30267 8.62931L2.72933 9.16665L4.30267 9.70398C4.85287 9.89172 5.35554 10.1971 5.77566 10.599C6.19579 11.0008 6.52328 11.4893 6.73533 12.0306L6.796 12.1973L7.33333 13.7706L7.87067 12.1973C8.05841 11.6471 8.36382 11.1444 8.76564 10.7243C9.16747 10.3042 9.65604 9.9767 10.1973 9.76465L10.364 9.70465L11.9373 9.16665L10.364 8.62931C9.8138 8.44157 9.31113 8.13616 8.891 7.73434C8.47087 7.33252 8.14338 6.84394 7.93133 6.30265L7.87133 6.13598L7.33333 4.56265ZM12.6667 1.83331C12.7914 1.83331 12.9136 1.8683 13.0194 1.93429C13.1253 2.00029 13.2105 2.09465 13.2653 2.20665L13.2973 2.28465L13.5307 2.96865L14.2153 3.20198C14.3403 3.24444 14.4499 3.32306 14.5302 3.42786C14.6104 3.53266 14.6578 3.65893 14.6662 3.79066C14.6746 3.9224 14.6437 4.05367 14.5775 4.16784C14.5112 4.28201 14.4126 4.37394 14.294 4.43198L14.2153 4.46398L13.5313 4.69731L13.298 5.38198C13.2555 5.50693 13.1768 5.61645 13.0719 5.69664C12.9671 5.77684 12.8408 5.82411 12.7091 5.83246C12.5774 5.84081 12.4461 5.80988 12.332 5.74357C12.2179 5.67726 12.126 5.57856 12.068 5.45998L12.036 5.38198L11.8027 4.69798L11.118 4.46465C10.993 4.42218 10.8834 4.34357 10.8032 4.23877C10.7229 4.13397 10.6756 4.0077 10.6671 3.87597C10.6587 3.74423 10.6896 3.61296 10.7559 3.49879C10.8221 3.38462 10.9208 3.29269 11.0393 3.23465L11.118 3.20265L11.802 2.96931L12.0353 2.28465C12.0803 2.15293 12.1653 2.03859 12.2786 1.95765C12.3918 1.87671 12.5275 1.83323 12.6667 1.83331Z" fill="white"/>
</svg>
