<svg width="16" height="17" viewBox="0 0 16 17" fill="none" xmlns="http://www.w3.org/2000/svg">
<path d="M8 9.83333C9.47067 9.83333 10.6667 8.63733 10.6667 7.16667C10.6667 5.696 9.47067 4.5 8 4.5C6.52933 4.5 5.33333 5.696 5.33333 7.16667C5.33333 8.63733 6.52933 9.83333 8 9.83333ZM8 5.83333C8.73533 5.83333 9.33333 6.43133 9.33333 7.16667C9.33333 7.902 8.73533 8.5 8 8.5C7.26467 8.5 6.66667 7.902 6.66667 7.16667C6.66667 6.43133 7.26467 5.83333 8 5.83333Z" fill="white"/>
<path d="M7.61333 15.0426C7.72624 15.123 7.8614 15.1662 8 15.1662C8.1386 15.1662 8.27376 15.123 8.38667 15.0426C8.58933 14.8993 13.3527 11.46 13.3333 7.16665C13.3333 4.22598 10.9407 1.83331 8 1.83331C5.05933 1.83331 2.66667 4.22598 2.66667 7.16331C2.64733 11.46 7.41067 14.8993 7.61333 15.0426ZM8 3.16665C10.206 3.16665 12 4.96065 12 7.16998C12.014 10.1286 9.07467 12.7853 8 13.6566C6.926 12.7846 3.986 10.1273 4 7.16665C4 4.96065 5.794 3.16665 8 3.16665Z" fill="white"/>
</svg>
